<svg width="800" height="600" xmlns="http://www.w3.org/2000/svg" xmlns:svg="http://www.w3.org/2000/svg">
 <g>
  <title>Layer 1</title>
  <text fill="#0000ff" font-size="22.61728" text-anchor="middle" font-family="serif" stroke="null" id="s_10" y="100.70563" x="248.04595">Arduino</text>
  <polyline id="Li2" points="270,160 300,160 " stroke-width="1.5" stroke="#000000" fill="none"/>
  <polyline id="Li3" points="270,180 300,180 " stroke-width="1.5" stroke="#000000" fill="none"/>
  <polyline fill="none" stroke="#000000" stroke-width="1.5" points="300,160 310,170  300,180 " id="Li5"/>
  <polyline fill="none" stroke="#000000" stroke-width="1.5" points="270,160 270,180 " id="Li6"/>
  <path d="m350,170l5,0l3,-5l5,10l5,-10l5,10l5,-10l5,10l3,-5l4,0" fill="none" stroke="#7f0000" stroke-width="1.5" id="R1"/>
  <polyline fill="none" stroke="#000000" stroke-width="1.5" points="310,170 350,170 " id="Li7"/>
  <path d="m430,170l16,0l0,-8l8,8l-8,8l0,-8m8,-9l0,18m0,-9l16,0m0,-20m0,40m0,-20m-14,-2l5.8,-5.6l-1.8,-1.9l4.7,-0.7l-1.05,4.35l-1.65,-1.85m-6,-2.3l5.7,-5.4l-1.7,-2.1l4.8,-1.2l-1.7,4.95l-1.5,-1.65" fill="#7f0000" stroke="#7f0000" stroke-width="1.5" id="di0"/>
  <polyline fill="none" stroke="#000000" stroke-width="1.5" points="390,170 430,170 " id="Li8"/>
  <polyline fill="none" stroke="#000000" stroke-width="1.5" points="470,170 500,170  500,200 " id="Li9"/>
  <path d="m500,200l0,12m-10,0l20,0m-5,4l-10,0m2,4l6,0" fill="none" stroke="#7f0000" stroke-width="1.5" id="P2"/>
  <polyline id="Li15" points="200,70 290,70  290,160 " stroke-width="1.5" stroke="#000000" fill="none"/>
  <text fill="#0000ff" font-size="14" text-anchor="middle" font-family="serif" stroke="null" id="s_6" y="155.6" x="373.8">330Ω</text>
  <polyline id="Li25" points="290,180 290,280  200,280 " stroke-width="1.5" stroke="#000000" fill="none"/>
  <text fill="#0000ff" font-size="20" text-anchor="middle" font-family="serif" stroke="null" id="s_5" y="171" x="205.49432">LED (pin 10)</text>
 </g>
</svg>